<?xml version="1.0" standalone="no"?>
<!DOCTYPE svg PUBLIC "-//W3C//DTD SVG 20010904//EN"
 "http://www.w3.org/TR/2001/REC-SVG-20010904/DTD/svg10.dtd">
<svg version="1.0" xmlns="http://www.w3.org/2000/svg"
 width="417.000000pt" height="405.000000pt" viewBox="0 0 417.000000 405.000000"
 preserveAspectRatio="xMidYMid meet">

<g transform="translate(0.000000,405.000000) scale(0.100000,-0.100000)"
fill="#000000" stroke="none">
<path d="M0 4035 c0 -13 238 -15 2085 -15 1847 0 2085 2 2085 15 0 13 -238 15
-2085 15 -1847 0 -2085 -2 -2085 -15z"/>
<path d="M2109 3823 c-35 -7 -122 -15 -194 -17 -124 -5 -132 -6 -200 -40 -98
-50 -124 -57 -257 -65 -111 -7 -121 -10 -175 -44 -32 -19 -80 -60 -107 -91
l-49 -56 78 -176 c43 -97 74 -178 69 -183 -5 -4 -36 -27 -68 -52 -33 -24 -98
-82 -145 -129 -191 -191 -318 -427 -377 -701 -29 -132 -26 -401 4 -538 66
-296 212 -545 433 -740 119 -106 208 -164 226 -150 10 9 -2 22 -62 62 -42 27
-118 90 -169 138 -211 200 -339 432 -402 729 -29 136 -25 373 9 517 76 330
268 622 530 807 52 36 65 41 116 41 73 1 111 23 111 64 0 27 6 32 77 61 92 38
239 77 328 86 l65 7 0 -81 c0 -44 2 -87 5 -94 5 -11 -27 -16 -162 -27 -304
-23 -483 -73 -599 -167 -103 -83 -233 -348 -279 -566 -25 -117 -45 -323 -45
-463 0 -370 87 -615 284 -803 97 -92 252 -192 276 -177 20 12 8 25 -48 54 -81
41 -194 132 -255 206 -166 201 -225 422 -214 800 10 308 52 498 162 720 72
146 132 213 231 260 136 65 297 98 542 111 l122 7 0 -45 0 -45 -112 -7 c-214
-14 -415 -59 -536 -120 -214 -109 -367 -604 -333 -1076 17 -224 61 -378 146
-510 50 -78 113 -142 172 -177 48 -28 183 -74 195 -66 16 9 7 19 -29 32 -138
47 -258 140 -316 245 -121 218 -165 632 -102 963 37 194 105 376 175 469 82
109 227 160 565 199 184 21 175 23 175 -25 l0 -40 -59 0 c-254 0 -508 -67
-598 -157 -44 -44 -107 -149 -98 -163 12 -20 25 -9 50 40 84 166 227 227 583
248 l122 7 0 -37 0 -38 -120 0 c-327 0 -434 -42 -516 -202 -28 -54 -30 -74
-10 -81 10 -4 23 13 44 56 63 134 122 170 309 186 67 6 158 11 203 11 l82 0
-7 -27 c-4 -16 -7 -28 -8 -29 -1 0 -48 -8 -104 -17 -191 -31 -322 -101 -381
-205 -19 -35 -20 -41 -6 -46 22 -8 31 -1 53 42 49 94 149 148 331 178 47 8 88
14 93 14 4 0 7 -18 7 -40 l0 -40 -51 0 c-29 0 -70 -5 -92 -12 -69 -21 -217
-176 -203 -214 9 -22 19 -16 46 27 14 22 50 65 81 94 60 57 112 79 177 73 37
-3 37 -4 40 -50 l3 -48 -34 0 c-50 0 -123 -25 -162 -55 -54 -40 -80 -136 -80
-290 0 -136 15 -197 65 -257 51 -61 230 -136 230 -96 0 8 -22 21 -54 32 -146
50 -197 121 -204 284 -6 133 20 255 62 298 46 47 186 74 186 37 0 -10 3 -34 6
-53 6 -35 5 -35 -41 -48 -94 -25 -142 -107 -132 -227 8 -103 69 -196 153 -231
25 -11 34 -23 50 -76 16 -55 19 -92 18 -278 -1 -186 -4 -221 -20 -259 l-19
-43 -152 4 c-114 4 -153 2 -153 -7 0 -13 112 -25 229 -25 l64 0 -7 -38 c-3
-20 -6 -52 -6 -71 l0 -34 -150 6 c-133 5 -170 0 -141 -17 4 -3 71 -10 147 -16
76 -6 139 -12 140 -13 1 -1 5 -26 9 -56 l7 -54 -133 6 c-74 4 -147 10 -162 13
-25 6 -28 4 -25 -12 4 -23 43 -31 203 -38 l120 -6 6 -27 c4 -16 7 -65 8 -111
l1 -82 -42 6 c-106 14 -210 36 -262 54 -55 19 -56 19 -56 0 0 -15 13 -23 53
-34 85 -25 178 -44 245 -52 l62 -7 0 -99 0 -100 -47 6 c-27 4 -62 9 -79 12
l-31 6 -13 -84 c-19 -129 -19 -130 15 -140 17 -5 125 -10 240 -12 116 -2 237
-7 270 -11 55 -7 62 -5 82 17 l23 24 -19 94 -18 95 -83 -3 c-61 -3 -80 -1 -75
8 4 6 10 52 14 103 l6 91 85 14 c104 16 293 78 387 126 397 200 674 565 759
1001 25 131 23 358 -4 490 -38 180 -110 365 -142 365 -15 0 -13 -12 20 -87
102 -238 136 -506 94 -754 -91 -541 -516 -979 -1067 -1098 -140 -30 -155 -29
-173 16 -18 41 -16 117 6 365 16 168 3 150 125 163 254 26 471 104 608 218 43
36 55 52 48 61 -8 9 -23 1 -62 -36 -127 -119 -337 -192 -641 -223 l-68 -7 0
50 0 49 88 16 c193 36 332 98 480 216 43 34 51 45 42 57 -10 11 -22 5 -69 -35
-78 -67 -161 -115 -260 -151 -90 -33 -204 -60 -252 -60 -30 0 -30 0 -27 52 l3
52 65 13 c93 19 183 50 276 95 91 43 161 98 150 116 -4 8 -29 -4 -74 -34 -88
-61 -155 -90 -282 -125 -144 -40 -140 -40 -140 26 l0 54 43 11 c203 52 366
125 338 153 -7 7 -18 5 -36 -7 -34 -23 -181 -79 -272 -104 l-73 -20 0 48 0 48
70 16 c110 25 199 75 227 129 41 79 35 158 -20 267 -41 83 -161 206 -234 241
-48 22 -52 27 -62 72 -14 61 -14 191 -1 239 12 43 7 42 155 7 240 -57 438
-228 551 -476 72 -159 84 -307 33 -430 -19 -43 -23 -65 -16 -72 6 -6 14 -11
18 -11 12 0 57 115 70 178 37 195 -117 523 -328 697 -88 73 -192 122 -324 154
-88 21 -108 29 -103 41 4 8 9 30 12 49 l4 33 87 -7 c114 -9 207 -28 265 -56
61 -28 145 -105 202 -185 74 -104 216 -422 260 -584 26 -94 24 -275 -3 -353
-16 -46 -17 -59 -7 -68 15 -12 23 0 50 81 14 41 18 84 18 165 0 153 -29 254
-153 534 -73 164 -141 272 -220 351 -100 99 -190 132 -403 145 l-106 7 -12 45
c-6 25 -9 48 -6 51 3 2 74 5 158 6 172 1 227 -10 333 -69 90 -50 202 -171 265
-287 27 -48 28 -50 40 -29 14 27 -11 73 -98 183 -91 114 -172 171 -302 214
-44 14 -93 18 -235 19 l-180 2 -14 28 c-27 55 -41 131 -41 221 0 142 16 170
85 144 14 -5 100 -14 190 -19 215 -12 279 -37 261 -104 -3 -12 -14 -32 -24
-45 l-18 -23 -49 21 c-75 32 -249 79 -321 86 -51 5 -64 4 -64 -7 0 -10 29 -20
98 -32 55 -10 148 -35 208 -55 l109 -37 -3 -36 c-2 -27 3 -44 22 -66 l26 -30
-43 7 c-52 10 -337 40 -377 40 -19 0 -30 -5 -30 -14 0 -11 19 -16 68 -20 308
-26 471 -54 558 -97 66 -31 136 -100 195 -189 46 -71 54 -79 67 -66 13 13 10
23 -29 83 -76 116 -173 198 -273 228 -19 6 -19 6 1 27 l21 21 34 -23 c68 -48
145 -115 219 -193 47 -49 79 -76 83 -69 4 7 2 20 -3 30 -16 30 -202 204 -259
242 -28 19 -52 40 -52 47 0 6 29 51 65 100 100 134 145 204 145 223 0 32 -39
67 -117 108 -43 22 -109 61 -148 87 l-70 47 -97 -7 -97 -7 -88 40 c-48 22
-105 45 -125 51 -66 21 -170 28 -239 14z m-142 -378 c-2 -26 -6 -48 -9 -50 -2
-2 -46 -11 -98 -19 -106 -17 -240 -54 -330 -90 l-60 -25 0 22 c0 23 24 96 41
128 15 29 103 50 247 58 73 4 135 11 139 14 3 4 22 7 41 7 l35 0 -6 -45z m347
-1096 c81 -61 149 -145 177 -219 28 -72 30 -155 4 -198 -32 -54 -123 -103
-218 -117 l-47 -7 0 35 c0 33 3 37 38 46 88 24 150 99 137 164 -13 63 -86 161
-151 203 -21 14 -24 24 -24 80 0 35 4 64 9 64 4 0 38 -23 75 -51z m-344 -52
c0 -21 -7 -36 -19 -44 -27 -17 -61 -115 -61 -176 0 -55 17 -85 58 -106 25 -13
30 -51 7 -51 -8 0 -35 19 -59 43 -33 32 -48 56 -61 101 -20 70 -16 163 10 202
20 31 73 64 103 64 18 0 22 -5 22 -33z m322 -122 c57 -61 82 -135 64 -191 -6
-20 -59 -55 -103 -69 -20 -6 -23 -3 -23 24 0 19 9 39 25 55 14 14 25 36 25 49
0 13 -11 41 -25 61 -18 26 -25 50 -25 83 0 51 4 50 62 -12z m-322 -65 c0 -91
-2 -108 -14 -104 -20 8 -37 61 -30 93 9 42 35 121 40 121 2 0 4 -49 4 -110z
m267 -82 c-3 -7 -5 -2 -5 12 0 14 2 19 5 13 2 -7 2 -19 0 -25z"/>
<path d="M885 3388 c-40 -22 -67 -54 -97 -116 -24 -52 -39 -69 -75 -90 -91
-53 -205 -177 -257 -279 -9 -18 -21 -67 -27 -110 -14 -102 -47 -174 -115 -245
-103 -108 -127 -197 -94 -348 21 -97 21 -101 4 -197 -29 -170 -20 -300 27
-395 11 -21 25 -63 33 -95 8 -32 27 -87 43 -123 17 -36 36 -83 43 -105 15 -47
65 -123 144 -219 78 -94 96 -133 96 -203 0 -37 6 -67 15 -81 9 -12 55 -43 102
-69 47 -27 111 -71 143 -99 31 -27 97 -71 147 -97 85 -44 117 -71 167 -142 10
-15 38 -36 61 -46 42 -18 184 -38 275 -39 l45 0 18 113 18 112 -33 28 c-18 15
-145 100 -283 189 -447 287 -466 303 -566 469 -64 108 -101 206 -149 400 -58
234 -74 357 -67 514 9 195 54 367 147 560 92 190 145 254 320 388 52 39 101
84 109 98 14 24 12 29 -42 107 -32 44 -57 85 -57 90 0 15 -36 42 -56 42 -10 0
-28 -6 -39 -12z"/>
<path d="M3241 3342 c-11 -22 -36 -60 -55 -86 -59 -77 -58 -80 119 -275 138
-152 188 -221 244 -334 82 -168 120 -325 128 -528 12 -294 -61 -593 -227 -934
-86 -177 -130 -244 -213 -324 -73 -71 -209 -172 -307 -226 -71 -40 -263 -125
-283 -125 -36 -1 -39 -15 -23 -105 9 -48 17 -90 20 -92 2 -2 48 9 102 26 54
17 148 40 209 51 68 13 134 33 173 51 109 53 254 207 310 329 27 58 134 198
240 315 92 101 181 221 214 290 32 68 36 136 16 255 -11 63 -9 88 15 247 34
223 34 262 1 333 -25 53 -26 63 -28 235 l-1 180 -33 68 c-26 51 -46 77 -91
111 -58 45 -61 49 -128 207 -9 22 -42 58 -84 92 -52 43 -76 72 -100 119 -17
35 -39 71 -48 82 -16 19 -122 76 -141 76 -5 0 -18 -17 -29 -38z"/>
<path d="M2260 2671 c0 -12 6 -21 13 -21 6 0 40 -13 74 -29 241 -114 446 -352
484 -561 10 -60 10 -79 -5 -137 -16 -65 -11 -94 13 -79 18 12 41 107 41 170 0
98 -42 206 -120 311 -46 61 -187 198 -255 247 -56 40 -176 103 -218 113 -23 6
-27 4 -27 -14z"/>
<path d="M3221 2601 c-10 -6 -7 -22 14 -72 109 -270 127 -502 60 -803 -63
-281 -221 -463 -530 -611 -147 -71 -244 -105 -395 -139 -77 -17 -106 -27 -108
-40 -4 -21 5 -20 123 8 342 83 662 263 809 455 57 74 91 142 120 243 86 297
73 597 -36 880 -31 83 -37 91 -57 79z"/>
<path d="M3075 2553 c4 -10 27 -74 50 -143 95 -278 128 -677 66 -799 -33 -65
-152 -182 -252 -250 -158 -107 -385 -201 -601 -250 -75 -17 -96 -26 -91 -37 6
-17 29 -14 192 28 362 93 688 303 783 504 38 82 51 167 44 289 -11 183 -65
442 -123 595 -23 61 -33 76 -52 78 -20 3 -22 1 -16 -15z"/>
<path d="M2246 2543 c-15 -15 -3 -31 33 -43 160 -53 401 -364 401 -518 0 -27
6 -41 21 -51 22 -13 22 -12 17 51 -10 126 -84 264 -208 388 -94 94 -244 192
-264 173z"/>
<path d="M1141 2428 c-53 -167 -63 -448 -23 -645 59 -296 132 -428 275 -498
88 -43 194 -66 207 -44 7 11 -5 17 -63 30 -228 50 -305 158 -378 531 -31 159
-31 390 0 536 12 57 19 107 16 112 -11 18 -23 10 -34 -22z"/>
<path d="M1253 2322 c-4 -42 -8 -160 -8 -262 0 -205 11 -264 66 -378 70 -144
222 -236 499 -302 106 -25 133 -26 128 -3 -2 12 -26 21 -93 34 -336 64 -504
202 -552 451 -12 66 -14 120 -9 263 4 99 9 196 12 217 5 30 2 38 -14 47 -19
10 -21 7 -29 -67z"/>
<path d="M1390 2236 c0 -329 154 -587 412 -694 98 -40 138 -48 138 -28 0 9
-16 19 -42 27 -23 6 -70 24 -104 41 -225 110 -364 347 -364 623 0 95 -8 125
-32 125 -4 0 -8 -42 -8 -94z"/>
<path d="M1533 2187 c7 -76 56 -234 105 -337 44 -94 119 -170 194 -198 76 -28
112 -31 116 -9 2 10 -3 17 -12 17 -37 0 -129 45 -174 85 -27 24 -62 70 -79
102 -38 71 -99 260 -109 333 -6 51 -16 69 -38 70 -5 0 -6 -28 -3 -63z"/>
</g>
</svg>
